HIERARCHY
ROOT Hips
{
	OFFSET 0 0 0
	CHANNELS 6 Xposition Yposition Zposition Yrotation Xrotation Zrotation
	JOINT Spine
	{
		OFFSET -0 8.38078 -2.67137
		CHANNELS 3 Yrotation Xrotation Zrotation
		JOINT Spine1
		{
			OFFSET -0 10.2701 0
			CHANNELS 3 Yrotation Xrotation Zrotation
			JOINT Spine2
			{
				OFFSET -0 10.2701 0
				CHANNELS 3 Yrotation Xrotation Zrotation
				JOINT Spine3
				{
					OFFSET -0 10.2701 0
					CHANNELS 3 Yrotation Xrotation Zrotation
					JOINT Neck
					{
						OFFSET -0 16.9472 3.67137
						CHANNELS 3 Yrotation Xrotation Zrotation
						JOINT Head
						{
							OFFSET -0 10.476 0
							CHANNELS 3 Yrotation Xrotation Zrotation
							End Site
							{
								OFFSET -0 15 0
							}
						}
					}
					JOINT LeftShoulder
					{
						OFFSET 1.74599 4.87741 3.49199
						CHANNELS 3 Yrotation Xrotation Zrotation
						JOINT LeftArm
						{
							OFFSET 19.9293 0 0
							CHANNELS 3 Yrotation Xrotation Zrotation
							JOINT LeftForeArm
							{
								OFFSET 25.2203 0 0
								CHANNELS 3 Yrotation Xrotation Zrotation
								JOINT LeftHand
								{
									OFFSET 22.6882 0 0
									CHANNELS 3 Yrotation Xrotation Zrotation
									End Site
									{
										OFFSET 15 0 0
									}
								}
							}
						}
					}
					JOINT RightShoulder
					{
						OFFSET -1.74599 4.87741 3.49199
						CHANNELS 3 Yrotation Xrotation Zrotation
						JOINT RightArm
						{
							OFFSET -19.9293 0 0
							CHANNELS 3 Yrotation Xrotation Zrotation
							JOINT RightForeArm
							{
								OFFSET -25.2203 0 0
								CHANNELS 3 Yrotation Xrotation Zrotation
								JOINT RightHand
								{
									OFFSET -22.6882 0 0
									CHANNELS 3 Yrotation Xrotation Zrotation
									End Site
									{
										OFFSET -15 0 0
									}
								}
							}
						}
					}
				}
			}
		}
	}
	JOINT LeftUpLeg
	{
		OFFSET 10.476 -3.49199 2
		CHANNELS 3 Yrotation Xrotation Zrotation
		JOINT LeftLeg
		{
			OFFSET -0 -42.329 2.44439
			CHANNELS 3 Yrotation Xrotation Zrotation
			JOINT LeftFoot
			{
				OFFSET -0 -39.8175 -2.44439
				CHANNELS 3 Yrotation Xrotation Zrotation
				JOINT LeftToeBase
				{
					OFFSET -0 -6.74129 15.714
					CHANNELS 3 Yrotation Xrotation Zrotation
					End Site
					{
						OFFSET -0 0 5
					}
				}
			}
		}
	}
	JOINT RightUpLeg
	{
		OFFSET -10.476 -3.49199 2
		CHANNELS 3 Yrotation Xrotation Zrotation
		JOINT RightLeg
		{
			OFFSET -0 -42.329 2.44439
			CHANNELS 3 Yrotation Xrotation Zrotation
			JOINT RightFoot
			{
				OFFSET -0 -39.8175 -2.44439
				CHANNELS 3 Yrotation Xrotation Zrotation
				JOINT RightToeBase
				{
					OFFSET -0 -6.74129 15.714
					CHANNELS 3 Yrotation Xrotation Zrotation
					End Site
					{
						OFFSET -0 0 5
					}
				}
			}
		}
	}
}
MOTION
Frames: 8
Frame Time: 0.00833333
178.138403 94.412787 -247.444995 -4.445888 -2.318493 0.512146 0.219663 1.568994 -0.516691 0.139293 1.656600 -0.444369 0.258979 1.612855 -0.310929 0.239952 1.669173 -0.158780 -0.532900 0.012106 -0.274567 -0.194810 6.207971 0.357476 15.820752 12.086174 -1.755216 -48.463229 -6.185092 -65.323772 -13.201503 7.263031 9.500092 3.517314 -13.728343 -6.090272 -13.293748 9.890170 6.033275 39.497568 -2.746493 68.920520 14.753112 5.569584 -9.416886 -5.949863 -10.997477 5.084600 5.688425 8.554458 1.323357 0.000000 -1.385756 0.000000 8.715658 1.409619 1.109564 0.000000 -11.244844 0.000000 -7.243118 7.737396 -2.768442 0.000000 -1.370113 0.000000 -7.898391 -0.140877 -4.761870 0.000000 -3.324540 0.000000
178.140881 94.413043 -247.447290 -4.445280 -2.319069 0.511020 0.215129 1.566072 -0.512721 0.135270 1.663039 -0.442907 0.264365 1.615930 -0.311197 0.245221 1.673735 -0.158187 -0.346317 -0.031442 -0.228490 -0.118052 6.184233 0.344877 15.830254 12.084087 -1.761588 -48.440624 -6.196116 -65.326020 -13.199299 7.287632 9.500578 3.521572 -13.725982 -6.138483 -13.297285 9.886212 6.039498 39.501791 -2.746142 68.914395 14.761338 5.569319 -9.424821 -5.958940 -11.021660 5.102887 5.696783 8.553542 1.323552 0.000000 -1.387226 0.000000 8.710858 1.410319 1.116419 0.000000 -11.254821 0.000000 -7.242805 7.737066 -2.769550 0.000000 -1.371167 0.000000 -7.899648 -0.141116 -4.736064 0.000000 -3.327138 0.000000
178.142163 94.413635 -247.449609 -4.444959 -2.319761 0.510793 0.223076 1.563382 -0.512395 0.143436 1.667582 -0.441381 0.260257 1.618352 -0.307020 0.241426 1.675264 -0.155653 -0.144400 -0.032766 -0.209713 -0.032595 6.113161 0.344823 15.830580 12.080225 -1.771299 -48.436252 -6.197783 -65.326972 -13.198121 7.273832 9.493688 3.536316 -13.667948 -6.144755 -13.304594 9.879777 6.051487 39.500143 -2.741137 68.906727 14.766271 5.563699 -9.422822 -5.982768 -10.985826 5.068754 5.694582 8.553360 1.323161 0.000000 -1.387769 0.000000 8.706779 1.414038 1.118483 0.000000 -11.256521 0.000000 -7.247494 7.736161 -2.770034 0.000000 -1.372248 0.000000 -7.900414 -0.137827 -4.748618 0.000000 -3.328706 0.000000
178.144568 94.414368 -247.452686 -4.444171 -2.318280 0.515774 0.224640 1.563711 -0.510268 0.146783 1.682926 -0.449974 0.266716 1.601299 -0.300630 0.249437 1.672226 -0.155492 0.050334 -0.033654 -0.172522 0.049088 6.027706 0.351199 15.827066 12.091970 -1.781791 -48.436388 -6.204662 -65.310918 -13.196124 7.261552 9.476971 3.556451 -13.652028 -6.128837 -13.314500 9.877164 6.066685 39.490238 -2.719330 68.906571 14.767133 5.572209 -9.442342 -5.959994 -11.027534 5.097932 5.696547 8.558848 1.315716 0.000000 -1.405724 0.000000 8.704826 1.424579 1.131080 0.000000 -11.252173 0.000000 -7.247050 7.736155 -2.776812 0.000000 -1.381651 0.000000 -7.899182 -0.132319 -4.743662 0.000000 -3.325185 0.000000
178.147546 94.414453 -247.454883 -4.440546 -2.318898 0.513016 0.227786 1.567161 -0.502923 0.149952 1.676928 -0.446752 0.276227 1.609952 -0.301304 0.258465 1.672935 -0.154585 0.235494 -0.058244 -0.136229 0.127330 5.974719 0.368007 15.813244 12.088495 -1.786408 -48.477263 -6.211247 -65.309649 -13.146515 7.234949 9.484418 3.530014 -13.685987 -6.126291 -13.333004 9.876473 6.081062 39.460864 -2.714998 68.896525 14.769725 5.595564 -9.437520 -5.934998 -11.020209 5.058107 5.689842 8.559246 1.315526 0.000000 -1.410203 0.000000 8.710604 1.423281 1.134390 0.000000 -11.248927 0.000000 -7.252358 7.735081 -2.775749 0.000000 -1.380451 0.000000 -7.898306 -0.130887 -4.750500 0.000000 -3.323083 0.000000
178.149341 94.414532 -247.457056 -4.448782 -2.320134 0.515458 0.240784 1.570476 -0.501750 0.163046 1.677552 -0.445655 0.273781 1.613479 -0.297422 0.256626 1.668487 -0.154540 0.441327 -0.053946 -0.112632 0.215228 5.849964 0.391228 15.808957 12.083697 -1.794325 -48.462374 -6.208181 -65.315913 -13.154094 7.235778 9.484921 3.539767 -13.677996 -6.135207 -13.340356 9.875613 6.094230 39.450802 -2.706078 68.888636 14.779740 5.580629 -9.428286 -5.962563 -10.990889 5.019171 5.699294 8.557498 1.312289 0.000000 -1.405564 0.000000 8.709762 1.424389 1.135826 0.000000 -11.251232 0.000000 -7.249744 7.735756 -2.780031 0.000000 -1.385852 0.000000 -7.891758 -0.128939 -4.740587 0.000000 -3.319539 0.000000
178.150305 94.415253 -247.459619 -4.447335 -2.319724 0.511739 0.236516 1.600941 -0.504569 0.157524 1.666972 -0.444082 0.239152 1.609460 -0.284098 0.211780 1.500483 -0.107222 0.731018 0.164952 -0.201931 0.349153 5.704893 0.483743 15.871403 12.216310 -1.852761 -48.362522 -6.161412 -65.319714 -13.185615 7.287493 9.471718 3.536120 -13.667734 -6.130059 -13.252562 10.010759 6.039504 39.445562 -2.698413 68.883162 14.757902 5.583089 -9.446416 -5.946659 -10.974207 5.004895 5.657604 8.552255 1.310509 0.000000 -1.398181 0.000000 8.748128 1.420383 1.129914 0.000000 -11.259134 0.000000 -7.257635 7.734892 -2.777048 0.000000 -1.387923 0.000000 -7.884812 -0.124901 -4.742133 0.000000 -3.321316 0.000000
178.147815 94.408063 -247.460962 -4.447411 -2.317748 0.478603 0.237017 1.595106 -0.492121 0.155481 1.661989 -0.426686 0.149461 1.568020 -0.264887 0.108165 1.605069 -0.005197 1.097166 0.099229 -0.404477 0.521630 5.604360 0.606129 16.026471 12.194038 -1.981434 -48.263068 -6.157301 -65.316687 -13.244151 7.336215 9.425582 3.575544 -13.681685 -6.094457 -13.089960 9.980439 5.894397 39.575710 -2.779817 68.911475 14.682761 5.510792 -9.507560 -5.954544 -10.961592 4.990512 5.625085 8.562697 1.338485 0.000000 -1.435561 0.000000 8.792039 1.388786 1.186517 0.000000 -11.229307 0.000000 -7.300421 7.726859 -2.744968 0.000000 -1.372826 0.000000 -7.836076 -0.135656 -4.750879 0.000000 -3.318413 0.000000
